<svg width="250" height="200" viewBox="0 0 250 200" fill="none" xmlns="http://www.w3.org/2000/svg">
<g clip-path="url(#clip0_0_3)">
<rect width="250" height="200" fill="white"/>
<path d="M79.1 134.6C76.1667 134.6 74.7 133.783 74.7 132.15C74.7 131.383 75.1167 130.8 75.95 130.4C76.6167 130.067 77.3833 129.9 78.25 129.9C79.45 129.9 81.7667 130.6 85.2 132C86.1667 131.233 87.1 130.283 88 129.15C88.9 128.017 89.75 126.683 90.55 125.15C91.2167 123.85 91.8667 122.533 92.5 121.2C93.1333 119.867 93.7667 118.533 94.4 117.2C97.0667 111.7 100.117 107.683 103.55 105.15C100.65 103.883 97.7 103.25 94.7 103.25C91.1333 103.25 88.0167 103.817 85.35 104.95C82.1167 106.317 79.7333 108.367 78.2 111.1C77.2667 112.767 76.8 114.5 76.8 116.3C76.8 118.067 77.3 119.533 78.3 120.7C79.3667 121.9 80.7833 122.5 82.55 122.5C84.7167 122.5 86.6833 121.767 88.45 120.3C90.35 118.8 91.3 116.967 91.3 114.8C91.3 113.667 90.85 112.65 89.95 111.75C89.05 110.883 88 110.45 86.8 110.45C85.7333 110.45 84.7667 110.8 83.9 111.5C83.0333 112.267 82.6 113.167 82.6 114.2C82.6 115.033 83.0333 115.45 83.9 115.45C84.2 115.45 84.35 115.5 84.35 115.6C84.35 115.767 84.1833 115.85 83.85 115.85C82.65 115.85 82.05 115.3 82.05 114.2C82.05 112.933 82.5333 111.917 83.5 111.15C84.4667 110.35 85.55 109.95 86.75 109.95C88.2833 109.95 89.55 110.5 90.55 111.6C91.55 112.633 92.05 113.9 92.05 115.4C92.05 117.667 91.0667 119.55 89.1 121.05C87.3333 122.417 85.2833 123.1 82.95 123.1C80.6833 123.1 78.7667 122.417 77.2 121.05C75.5667 119.617 74.75 117.783 74.75 115.55C74.75 114.983 74.8 114.4 74.9 113.8C75.0333 113.2 75.2 112.6 75.4 112C76.6667 108.6 79.0833 106.1 82.65 104.5C85.6167 103.2 89.1333 102.55 93.2 102.55C97.1333 102.55 100.867 103.233 104.4 104.6C106.667 103.067 108.883 102.3 111.05 102.3C111.383 102.3 111.567 102.367 111.6 102.5C111.6 102.5 111.483 102.533 111.25 102.6C110.317 102.767 109.567 102.9 109 103C108.467 103.1 108.117 103.183 107.95 103.25C107.417 103.383 106.883 103.583 106.35 103.85C105.85 104.117 105.367 104.433 104.9 104.8C111.533 107.6 114.85 111.783 114.85 117.35C114.85 117.883 114.817 118.417 114.75 118.95C114.683 119.45 114.583 119.967 114.45 120.5C113.35 125.167 110.833 128.683 106.9 131.05C103.433 133.117 99.1333 134.15 94 134.15C90.8333 134.15 88.1667 133.733 86 132.9C83.8667 134.033 81.5667 134.6 79.1 134.6ZM93.2 133.75C98.3667 133.75 102.733 132.367 106.3 129.6C110.167 126.633 112.1 122.617 112.1 117.55H112.15C112.15 112.083 109.483 108.05 104.15 105.45C101.883 107.583 99.7667 111.333 97.8 116.7C94.9333 124.567 91.2 129.85 86.6 132.55C88.7667 133.35 90.9667 133.75 93.2 133.75ZM79.25 134.2C81.15 134.2 82.95 133.6 84.65 132.4C81.8167 131.3 79.7167 130.75 78.35 130.75C76.5167 130.75 75.6 131.35 75.6 132.55C75.6 133.65 76.8167 134.2 79.25 134.2ZM124.766 114C123.699 114 123.166 113.483 123.166 112.45C123.166 111.317 123.683 110.75 124.716 110.75C125.783 110.75 126.316 111.267 126.316 112.3C126.316 113.433 125.799 114 124.766 114ZM118.866 133.5C116.666 133.5 115.566 132.283 115.566 129.85C115.566 128.083 116.083 126.217 117.116 124.25L120.866 116.9H121.016C121.116 117.033 121.316 117.1 121.616 117.1C122.249 117.1 123.083 116.717 124.116 115.95L124.216 116.05L119.966 124.3C118.199 127.7 117.316 130.067 117.316 131.4C117.316 132 117.483 132.417 117.816 132.65C118.149 132.883 118.533 133 118.966 133C119.433 133 119.883 132.9 120.316 132.7C120.783 132.5 121.183 132.283 121.516 132.05C122.416 131.35 123.166 130.55 123.766 129.65C124.399 128.717 124.949 127.783 125.416 126.85C125.883 125.917 126.299 125.133 126.666 124.5C126.766 124.333 126.866 124.283 126.966 124.35C127.066 124.383 127.083 124.483 127.016 124.65C126.349 126.05 125.616 127.483 124.816 128.95C124.016 130.417 122.999 131.583 121.766 132.45C121.333 132.75 120.866 133 120.366 133.2C119.899 133.4 119.399 133.5 118.866 133.5ZM138.085 133.15C136.352 133.15 135.485 131.95 135.485 129.55C135.485 128.617 135.635 127.55 135.935 126.35C133.602 130.85 131.285 133.1 128.985 133.1C127.885 133.1 127.052 132.55 126.485 131.45C126.018 130.617 125.785 129.567 125.785 128.3C125.785 127.267 125.935 126.183 126.235 125.05C126.802 123.083 128.002 121.233 129.835 119.5C131.868 117.633 133.802 116.7 135.635 116.7C137.302 116.7 138.135 117.7 138.135 119.7C138.135 120.567 137.952 121.583 137.585 122.75L140.635 116.75H140.785C140.885 116.917 141.102 117 141.435 117C142.102 117 142.952 116.6 143.985 115.8L144.085 115.9L139.835 124.2C138.135 127.5 137.285 130 137.285 131.7C137.285 132.367 137.585 132.7 138.185 132.7C138.585 132.7 139.068 132.55 139.635 132.25C140.202 131.95 140.802 131.45 141.435 130.75C142.235 129.817 142.918 128.933 143.485 128.1C144.085 127.233 144.768 126.067 145.535 124.6C145.635 124.433 145.735 124.35 145.835 124.35C146.035 124.35 146.035 124.517 145.835 124.85C145.235 125.983 144.585 127.117 143.885 128.25C143.218 129.35 142.402 130.383 141.435 131.35C140.235 132.55 139.118 133.15 138.085 133.15ZM129.185 132.75C131.052 132.75 133.452 130.117 136.385 124.85C137.318 123.183 137.785 121.5 137.785 119.8C137.785 118 137.202 117.1 136.035 117.1C134.768 117.1 133.335 118.15 131.735 120.25C131.102 121.117 130.552 121.967 130.085 122.8C129.652 123.633 129.302 124.433 129.035 125.2C128.335 127.2 127.985 129 127.985 130.6C127.985 132.033 128.385 132.75 129.185 132.75ZM141.282 134.7L141.232 134.6C142.432 132 143.982 128.4 145.882 123.8C146.182 123.033 146.532 122.083 146.932 120.95C147.365 119.817 147.848 118.5 148.382 117H148.482C148.815 117.267 149.098 117.4 149.332 117.4C150.165 117.4 150.948 116.683 151.682 115.25V115.3C151.682 115.367 150.948 117.15 149.482 120.65C148.682 122.55 148.082 124 147.682 125C147.282 126 147.048 126.567 146.982 126.7C150.782 119.867 153.815 116.45 156.082 116.45C156.582 116.45 157.032 116.617 157.432 116.95C157.832 117.283 158.032 117.717 158.032 118.25C158.032 119.65 157.082 121.95 155.182 125.15C153.282 128.35 152.332 130.533 152.332 131.7C152.332 132.133 152.498 132.467 152.832 132.7C153.165 132.933 153.565 133.05 154.032 133.05C154.498 133.05 154.982 132.95 155.482 132.75C155.982 132.55 156.398 132.333 156.732 132.1C157.632 131.4 158.398 130.583 159.032 129.65C159.665 128.717 160.215 127.783 160.682 126.85C161.148 125.917 161.565 125.133 161.932 124.5C162.032 124.333 162.132 124.283 162.232 124.35C162.332 124.383 162.348 124.483 162.282 124.65C161.615 126.05 160.882 127.483 160.082 128.95C159.282 130.417 158.265 131.583 157.032 132.45C156.598 132.75 156.115 133 155.582 133.2C155.082 133.4 154.548 133.5 153.982 133.5C153.048 133.5 152.282 133.25 151.682 132.75C151.115 132.25 150.832 131.483 150.832 130.45C150.832 128.65 151.665 126.383 153.332 123.65C155.032 120.85 155.882 119.083 155.882 118.35C155.882 117.783 155.565 117.5 154.932 117.5H154.632C153.898 117.5 152.898 118.35 151.632 120.05C150.365 121.717 148.832 124.183 147.032 127.45C146.598 128.183 146.148 129.033 145.682 130C145.248 130.933 144.782 131.983 144.282 133.15L144.182 133.2C143.782 133 143.432 132.9 143.132 132.9C142.698 132.9 142.332 133.167 142.032 133.7C141.765 134.267 141.515 134.6 141.282 134.7ZM173.29 133.15C171.557 133.15 170.69 131.95 170.69 129.55C170.69 128.617 170.84 127.55 171.14 126.35C168.807 130.85 166.49 133.1 164.19 133.1C163.09 133.1 162.257 132.55 161.69 131.45C161.224 130.617 160.99 129.567 160.99 128.3C160.99 127.267 161.14 126.183 161.44 125.05C162.007 123.083 163.207 121.233 165.04 119.5C167.074 117.633 169.007 116.7 170.84 116.7C172.507 116.7 173.34 117.7 173.34 119.7C173.34 120.567 173.157 121.583 172.79 122.75L175.84 116.75H175.99C176.09 116.917 176.307 117 176.64 117C177.307 117 178.157 116.6 179.19 115.8L179.29 115.9L175.04 124.2C173.34 127.5 172.49 130 172.49 131.7C172.49 132.367 172.79 132.7 173.39 132.7C173.79 132.7 174.274 132.55 174.84 132.25C175.407 131.95 176.007 131.45 176.64 130.75C177.44 129.817 178.124 128.933 178.69 128.1C179.29 127.233 179.974 126.067 180.74 124.6C180.84 124.433 180.94 124.35 181.04 124.35C181.24 124.35 181.24 124.517 181.04 124.85C180.44 125.983 179.79 127.117 179.09 128.25C178.424 129.35 177.607 130.383 176.64 131.35C175.44 132.55 174.324 133.15 173.29 133.15ZM164.39 132.75C166.257 132.75 168.657 130.117 171.59 124.85C172.524 123.183 172.99 121.5 172.99 119.8C172.99 118 172.407 117.1 171.24 117.1C169.974 117.1 168.54 118.15 166.94 120.25C166.307 121.117 165.757 121.967 165.29 122.8C164.857 123.633 164.507 124.433 164.24 125.2C163.54 127.2 163.19 129 163.19 130.6C163.19 132.033 163.59 132.75 164.39 132.75Z" fill="black"/>
<mask id="mask0_0_3" style="mask-type:alpha" maskUnits="userSpaceOnUse" x="0" y="53" width="157" height="60">
<rect y="53" width="157" height="60" fill="#D9D9D9"/>
</mask>
<g mask="url(#mask0_0_3)">
<path d="M15.3 149.8C6.5 149.8 2.1 147.35 2.1 142.45C2.1 140.15 3.35 138.4 5.85 137.2C7.85 136.2 10.15 135.7 12.75 135.7C16.35 135.7 23.3 137.8 33.6 142C36.5 139.7 39.3 136.85 42 133.45C44.7 130.05 47.25 126.05 49.65 121.45C51.65 117.55 53.6 113.6 55.5 109.6C57.4 105.6 59.3 101.6 61.2 97.6C69.2 81.1 78.35 69.05 88.65 61.45C79.95 57.65 71.1 55.75 62.1 55.75C51.4 55.75 42.05 57.45 34.05 60.85C24.35 64.95 17.2 71.1 12.6 79.3C9.8 84.3 8.4 89.5 8.4 94.9C8.4 100.2 9.9 104.6 12.9 108.1C16.1 111.7 20.35 113.5 25.65 113.5C32.15 113.5 38.05 111.3 43.35 106.9C49.05 102.4 51.9 96.9 51.9 90.4C51.9 87 50.55 83.95 47.85 81.25C45.15 78.65 42 77.35 38.4 77.35C35.2 77.35 32.3 78.4 29.7 80.5C27.1 82.8 25.8 85.5 25.8 88.6C25.8 91.1 27.1 92.35 29.7 92.35C30.6 92.35 31.05 92.5 31.05 92.8C31.05 93.3 30.55 93.55 29.55 93.55C25.95 93.55 24.15 91.9 24.15 88.6C24.15 84.8 25.6 81.75 28.5 79.45C31.4 77.05 34.65 75.85 38.25 75.85C42.85 75.85 46.65 77.5 49.65 80.8C52.65 83.9 54.15 87.7 54.15 92.2C54.15 99 51.2 104.65 45.3 109.15C40 113.25 33.85 115.3 26.85 115.3C20.05 115.3 14.3 113.25 9.6 109.15C4.7 104.85 2.25 99.35 2.25 92.65C2.25 90.95 2.4 89.2 2.7 87.4C3.1 85.6 3.6 83.8 4.2 82C8 71.8 15.25 64.3 25.95 59.5C34.85 55.6 45.4 53.65 57.6 53.65C69.4 53.65 80.6 55.7 91.2 59.8C98 55.2 104.65 52.9 111.15 52.9C112.15 52.9 112.7 53.1 112.8 53.5C112.8 53.5 112.45 53.6 111.75 53.8C108.95 54.3 106.7 54.7 105 55C103.4 55.3 102.35 55.55 101.85 55.75C100.25 56.15 98.65 56.75 97.05 57.55C95.55 58.35 94.1 59.3 92.7 60.4C112.6 68.8 122.55 81.35 122.55 98.05C122.55 99.65 122.45 101.25 122.25 102.85C122.05 104.35 121.75 105.9 121.35 107.5C118.05 121.5 110.5 132.05 98.7 139.15C88.3 145.35 75.4 148.45 60 148.45C50.5 148.45 42.5 147.2 36 144.7C29.6 148.1 22.7 149.8 15.3 149.8ZM57.6 147.25C73.1 147.25 86.2 143.1 96.9 134.8C108.5 125.9 114.3 113.85 114.3 98.65H114.45C114.45 82.25 106.45 70.15 90.45 62.35C83.65 68.75 77.3 80 71.4 96.1C62.8 119.7 51.6 135.55 37.8 143.65C44.3 146.05 50.9 147.25 57.6 147.25ZM15.75 148.6C21.45 148.6 26.85 146.8 31.95 143.2C23.45 139.9 17.15 138.25 13.05 138.25C7.55 138.25 4.8 140.05 4.8 143.65C4.8 146.95 8.45 148.6 15.75 148.6Z" fill="black"/>
</g>
<mask id="mask1_0_3" style="mask-type:alpha" maskUnits="userSpaceOnUse" x="-2" y="133" width="138" height="82">
<rect x="-2" y="133" width="138" height="82" fill="#D9D9D9"/>
</mask>
<g mask="url(#mask1_0_3)">
<path d="M17.3 163.8C8.5 163.8 4.1 161.35 4.1 156.45C4.1 154.15 5.35 152.4 7.85 151.2C9.85 150.2 12.15 149.7 14.75 149.7C18.35 149.7 25.3 151.8 35.6 156C38.5 153.7 41.3 150.85 44 147.45C46.7 144.05 49.25 140.05 51.65 135.45C53.65 131.55 55.6 127.6 57.5 123.6C59.4 119.6 61.3 115.6 63.2 111.6C71.2 95.1 80.35 83.05 90.65 75.45C81.95 71.65 73.1 69.75 64.1 69.75C53.4 69.75 44.05 71.45 36.05 74.85C26.35 78.95 19.2 85.1 14.6 93.3C11.8 98.3 10.4 103.5 10.4 108.9C10.4 114.2 11.9 118.6 14.9 122.1C18.1 125.7 22.35 127.5 27.65 127.5C34.15 127.5 40.05 125.3 45.35 120.9C51.05 116.4 53.9 110.9 53.9 104.4C53.9 101 52.55 97.95 49.85 95.25C47.15 92.65 44 91.35 40.4 91.35C37.2 91.35 34.3 92.4 31.7 94.5C29.1 96.8 27.8 99.5 27.8 102.6C27.8 105.1 29.1 106.35 31.7 106.35C32.6 106.35 33.05 106.5 33.05 106.8C33.05 107.3 32.55 107.55 31.55 107.55C27.95 107.55 26.15 105.9 26.15 102.6C26.15 98.8 27.6 95.75 30.5 93.45C33.4 91.05 36.65 89.85 40.25 89.85C44.85 89.85 48.65 91.5 51.65 94.8C54.65 97.9 56.15 101.7 56.15 106.2C56.15 113 53.2 118.65 47.3 123.15C42 127.25 35.85 129.3 28.85 129.3C22.05 129.3 16.3 127.25 11.6 123.15C6.7 118.85 4.25 113.35 4.25 106.65C4.25 104.95 4.4 103.2 4.7 101.4C5.1 99.6 5.6 97.8 6.2 96C10 85.8 17.25 78.3 27.95 73.5C36.85 69.6 47.4 67.65 59.6 67.65C71.4 67.65 82.6 69.7 93.2 73.8C100 69.2 106.65 66.9 113.15 66.9C114.15 66.9 114.7 67.1 114.8 67.5C114.8 67.5 114.45 67.6 113.75 67.8C110.95 68.3 108.7 68.7 107 69C105.4 69.3 104.35 69.55 103.85 69.75C102.25 70.15 100.65 70.75 99.05 71.55C97.55 72.35 96.1 73.3 94.7 74.4C114.6 82.8 124.55 95.35 124.55 112.05C124.55 113.65 124.45 115.25 124.25 116.85C124.05 118.35 123.75 119.9 123.35 121.5C120.05 135.5 112.5 146.05 100.7 153.15C90.3 159.35 77.4 162.45 62 162.45C52.5 162.45 44.5 161.2 38 158.7C31.6 162.1 24.7 163.8 17.3 163.8ZM59.6 161.25C75.1 161.25 88.2 157.1 98.9 148.8C110.5 139.9 116.3 127.85 116.3 112.65H116.45C116.45 96.25 108.45 84.15 92.45 76.35C85.65 82.75 79.3 94 73.4 110.1C64.8 133.7 53.6 149.55 39.8 157.65C46.3 160.05 52.9 161.25 59.6 161.25ZM17.75 162.6C23.45 162.6 28.85 160.8 33.95 157.2C25.45 153.9 19.15 152.25 15.05 152.25C9.55 152.25 6.8 154.05 6.8 157.65C6.8 160.95 10.45 162.6 17.75 162.6Z" fill="black"/>
</g>
</g>
<defs>
<clipPath id="clip0_0_3">
<rect width="250" height="200" fill="white"/>
</clipPath>
</defs>
</svg>
