<svg xmlns="http://www.w3.org/2000/svg" version="1.1" xmlns:xlink="http://www.w3.org/1999/xlink" xmlns:svgjs="http://svgjs.dev/svgjs" width="128" height="128" viewBox="0 0 128 128"><g transform="matrix(0.44782608695652176,0,0,0.44782608695652176,35.339226276730436,12.5)"><svg viewBox="0 0 125 225" data-background-color="#f9f9f9" preserveAspectRatio="xMidYMid meet" height="230" width="128" xmlns="http://www.w3.org/2000/svg" xmlns:xlink="http://www.w3.org/1999/xlink"><g id="tight-bounds" transform="matrix(1,0,0,1,-0.00020899999999812735,0)"><svg viewBox="0 0 125 225" height="225" width="125"><g><svg></svg></g><g><svg viewBox="0 0 125 225" height="225" width="125"><g><path transform="translate(-29.29403,21.95688) scale(1.81951,1.81951)" d="M20.6 59.9l0.8 1-0.4-1.3c-0.1-0.6-0.8 0.1-0.4 0.3M21.5 59.3c0.3 0.5 0.6 1 0.6 1.5 0 0.7 0.6 1 1.1 1.2-0.7-0.8-1.1-3-1.7-2.7M59.9 16.9c1.7 0 3.3-0.2 5.1 0.2 4.4 1.1 8.1 3.3 10.6 6.4l7 11.2c0.3 2.8 0.9 5.9 0.8 9.3 0.7 0 0.6-1 1.4-1.2-0.8 2-1.2 4.5-1.4 7.4-0.5-1.6 0-4 0.1-5.3-0.7 1.1-1.1 0.3-1.1-0.2 0.1-0.8-0.3-0.7-0.6-1-1.1-1-1.8-2.1-2.6-3.8 0.5-1.3 0.6-3.2-1-4.2-0.5-0.3-1.1-0.8-1.4-1.6-0.4-1.1-1.1-2.4-0.9-4.1 0.1-0.5-1.5 1.1-2.4 0.4-3.9-2.7-7.8-5.8-12.5-8.4-2.5 0-4.3-0.9-5.2-2-0.8-1-0.2-2.3 1-2.4 0.7 0 1.5-0.2 2.1 0.2 0.1-0.4 0.5-0.9 1-0.9M50 14.6l0.2 0.1c1 0.2 1.5 1.6 2.6 1.1 0 0.7 0.1 1.4-0.1 1.9-0.3 0.8-1.2 0.8-1.9 0.8-6.7-0.4-10.6 2.4-14.7 4.8-1.1 0.7-2.3 1.2-3.2 2.1-4.3 4-9 7.7-10.1 15.1l-0.9 8.2c-0.1 0.9-1.1 1.8-0.9 2.9l0.7 4.9c-0.7-0.7-1.1 0.2-0.9 0.6 0.1 0.3 0.5 1.3 1.1 0.4 0.8 1.5 1.6 4.4 2.7 5.7 3.4 4 7.8 7.6 11.4 11.2 0.9-0.2 1.6-0.2 1.8-0.8 0.3 0.6-0.3 1.2-0.8 1.3 1.6 1 3.4 1.9 5.8 2.1 3.1 0.2 6 0.7 8.7 1.4 1.4-0.4 2.8-0.6 4.3-0.7 0.5 0 0.8-0.8 1.4-1l0.1-1c0.6 0.9 0.5-0.3 0.1-0.9 0.7 0.6 0.9 1.1 1.2 1.5 0-0.3 0.8-1.4 0.8-0.1l0.2-1.3c0.3-0.2 0.4 1.1 0.7 0.2 0.3-0.9 0.9-0.2 1.5-0.5-0.2 0.4-0.1 1.2 0.6 0.7l0.8-0.7c0.5 1.2 1.3 0.7 1.7 0.5 4.4-2.8 8.8-6.1 13-9.4l-0.1 1.3 0.5-1.6c0.5 0.5 0.9 0.1 1.1-0.2 0.6-1 1.4-2 2.7-2.9-1.6 4.3-3.5 7.7-5.9 10.5l-1 1.2c0 0.7-0.2 1.6-1 1.7-0.4 0.1-1.2-0.2-1.8 0.4-0.3 0.4 0.7 1.2-0.1 0.6-0.7-0.5-1.4 0-2.2 0.2-0.6 0.2 0.4 0.8 0.6 1.2 0.2 0.4 0.4 0.8 0.3 1.3l-1.1-1.2c-1.3 0.7-2.1 2-3.2 3-0.5 0.4-0.3 1.1-0.3 1.7-0.7 0-1.5-0.2-1.9 0.2-0.3 0.4-0.2 1-0.2 1.6-1-0.1-1.1-1.6-2-1.3-0.9 0.2-1.9 0.3-2.7 0.8 0.6 1.2-1 0.5-0.8 0.7-1.5-0.9-2.8-1.6-4.4-1-3.4-1.1-7.6-0.6-10.7-0.2 0-0.5 0.1-1-0.1-1.1-0.2 0.5-0.8 0.3-0.7 0.3-1.9-1.3-3.8-2.1-5.8-3.2-1.8 0.2-3.5-0.7-4-1.2-1.4-1.3-3-0.6-4.3-0.9-2.8-0.7-3.8-3.6-4.1-5.6-0.2-1-1-1.4-1.3-1.3-1.3-4.2-3.3-8-4.9-11.9-0.4-1-0.3-2-0.3-3.1 0.5 0.2 1 0.1 0.9-0.6-0.5-3.3-1.7-5.8-3-8.2 0.7-3.4 0.8-7.4 2.4-10.4 1.4-2.7 4-4.1 5.8-6.4 0.6-0.8 0.6-1.9 1.2-2.6 2-2 4-4.1 6.2-5.9 1-0.8 2.2 0 3.7-0.3 0.5-1.8 2.5-3.4 4.4-2.9 0.8 0.2 2.4-1.9 2.9-2.1 0.8-0.3 0.4 0.8 0.4 1.5 1.9-1.5 4.5-2.3 6.9-3.2" fill="#030303" fill-rule="nonzero" stroke="none" stroke-width="1" stroke-linecap="butt" stroke-linejoin="miter" stroke-miterlimit="10" stroke-dasharray="" stroke-dashoffset="0" font-family="none" font-weight="none" font-size="none" text-anchor="none" style="mix-blend-mode: normal" data-fill-palette-color="tertiary"></path></g><g transform="matrix(1,0,0,1,48.17785,98.86658901914247)"><svg viewBox="0 0 28.6443 27.26682196171506" height="27.26682196171506" width="28.6443"><g><svg viewBox="0 0 28.6443 27.26682196171506" height="27.26682196171506" width="28.6443"><g><svg viewBox="0 0 28.6443 27.26682196171506" height="27.26682196171506" width="28.6443"><g id="textblocktransform"><svg viewBox="0 0 28.6443 27.26682196171506" height="27.26682196171506" width="28.6443" id="textblock"><g><svg viewBox="0 0 28.6443 27.26682196171506" height="27.26682196171506" width="28.6443"><g><svg viewBox="0 0 28.6443 27.26682196171506" height="27.26682196171506" width="28.6443"><g><svg xmlns="http://www.w3.org/2000/svg" xmlns:xlink="http://www.w3.org/1999/xlink" version="1.1" x="0" y="0" viewBox="5.167 5.67 90.166 85.83" enable-background="new 0 0 100 100" xml:space="preserve" height="27.26682196171506" width="28.6443" class="icon-icon-0" data-fill-palette-color="accent" id="icon-0"><path d="M46.71 78H14.76c0.34-2.84 2.49-6.49 8.6-11.029 0 0 1.97 2.299 7.36 2.299 5.4 0 7.18-2.299 7.18-2.299C44.25 71.51 46.43 75.16 46.71 78z" fill="#030303" data-fill-palette-color="accent"></path><circle cx="30.54" cy="56.152" r="11" fill="#030303" data-fill-palette-color="accent"></circle><path d="M85.62 78H55.67c0.85-2.561 3.11-5.609 7.88-9.16 0 0 1.891 2.2 7.07 2.2 5.189 0 6.899-2.2 6.899-2.2C82.48 72.391 84.8 75.439 85.62 78z" fill="#030303" data-fill-palette-color="accent"></path><circle cx="70.447" cy="58.444" r="10" fill="#030303" data-fill-palette-color="accent"></circle><path d="M65.538 54.115c-0.646 0.646-1.695 0.646-2.343 0l-5.67-5.673c-0.646-0.646-0.646-1.695 0-2.341l0 0c0.646-0.646 1.693-0.646 2.342 0l5.671 5.672C66.184 52.42 66.186 53.469 65.538 54.115L65.538 54.115z" fill="#030303" data-fill-palette-color="accent"></path><path d="M75.18 54.115c0.646 0.646 1.693 0.646 2.342 0l5.672-5.673c0.646-0.646 0.646-1.695 0-2.341l0 0c-0.646-0.646-1.694-0.646-2.342 0l-5.672 5.672C74.533 52.42 74.533 53.469 75.18 54.115L75.18 54.115z" fill="#030303" data-fill-palette-color="accent"></path><path d="M95.333 88.417c0 1.703-1.38 3.083-3.083 3.083h-84c-1.703 0-3.083-1.38-3.083-3.083v-5c0-1.703 1.38-3.083 3.083-3.083h84c1.703 0 3.083 1.38 3.083 3.083V88.417z" fill="#030303" data-fill-palette-color="accent"></path><path d="M52.79 5.67c-10.19 0-18.46 7.7-18.46 17.21 0 2.88 0.97 5.49 2.1 7.99 3.23 7.09-2.1 9.22-2.1 9.22 3.26 2.68 13.78 0 18.46 0 10.19 0 18.46-7.7 18.46-17.21C71.25 13.37 62.98 5.67 52.79 5.67zM54.3 35.46c-0.54 0.53-1.29 0.8-2.25 0.8-0.979 0-1.75-0.26-2.29-0.78-0.53-0.52-0.8-1.26-0.8-2.21 0-0.98 0.26-1.73 0.79-2.23 0.52-0.51 1.29-0.76 2.3-0.76 0.97 0 1.73 0.26 2.26 0.78 0.53 0.51 0.801 1.25 0.801 2.21C55.11 34.2 54.84 34.93 54.3 35.46zM60.1 19.44c-0.59 0.93-1.699 1.99-3.34 3.16-1.12 0.83-1.84 1.47-2.14 1.9-0.29 0.43-0.44 1-0.44 1.7v1.06h-4.66v-1.3c0-1.13 0.24-2.11 0.72-2.94 0.479-0.83 1.359-1.71 2.64-2.65 1.23-0.88 2.04-1.6 2.43-2.15 0.391-0.55 0.591-1.16 0.591-1.84 0-0.76-0.28-1.34-0.841-1.74-0.569-0.4-1.35-0.6-2.359-0.6-1.76 0-3.76 0.57-6.01 1.72l-1.92-3.85c2.62-1.46 5.39-2.19 8.32-2.19 2.41 0 4.33 0.58 5.75 1.74 1.43 1.16 2.141 2.7 2.141 4.64C60.98 17.39 60.69 18.5 60.1 19.44z" fill="#030303" data-fill-palette-color="accent"></path></svg></g></svg></g></svg></g></svg></g></svg></g><g></g></svg></g></svg></g></svg></g><defs></defs></svg><rect width="125" height="225" fill="none" stroke="none" visibility="hidden"></rect></g></svg></g></svg>